HIERARCHY
ROOT Hips
{
	OFFSET 0.000000 0.000000 0.000000
	CHANNELS 6 Xposition Yposition Zposition Zrotation Yrotation Xrotation 
	JOINT LHipJoint
	{
		OFFSET 0.000000 0.000000 0.000000
		CHANNELS 3 Zrotation Yrotation Xrotation
		JOINT LeftUpLeg
		{
			OFFSET 1.363060 -1.794630 0.839290
			CHANNELS 3 Zrotation Yrotation Xrotation
			JOINT LeftLeg
			{
				OFFSET 2.448110 -6.726130 0.000000
				CHANNELS 3 Zrotation Yrotation Xrotation
				JOINT LeftFoot
				{
					OFFSET 2.562200 -7.039590 0.000000
					CHANNELS 3 Zrotation Yrotation Xrotation
					JOINT LeftToeBase
					{
						OFFSET 0.157640 -0.433110 2.322550
						CHANNELS 3 Zrotation Yrotation Xrotation
						End Site
						{
							OFFSET 0.000000 0.000000 0.000000
						}
					}
				}
			}
		}
	}
	JOINT RHipJoint
	{
		OFFSET 0.000000 0.000000 0.000000
		CHANNELS 3 Zrotation Yrotation Xrotation
		JOINT RightUpLeg
		{
			OFFSET -1.305520 -1.794630 0.839290
			CHANNELS 3 Zrotation Yrotation Xrotation
			JOINT RightLeg
			{
				OFFSET -2.542530 -6.985550 0.000000
				CHANNELS 3 Zrotation Yrotation Xrotation
				JOINT RightFoot
				{
					OFFSET -2.568260 -7.056230 0.000000
					CHANNELS 3 Zrotation Yrotation Xrotation
					JOINT RightToeBase
					{
						OFFSET -0.164730 -0.452590 2.363150
						CHANNELS 3 Zrotation Yrotation Xrotation
						End Site
						{
							OFFSET 0.000000 0.000000 0.000000
						}
					}
				}
			}
		}
	}
	JOINT LowerBack
	{
		OFFSET 0.000000 0.000000 0.000000
		CHANNELS 3 Zrotation Yrotation Xrotation
		JOINT Spine
		{
			OFFSET 0.028270 2.035590 -0.193380
			CHANNELS 3 Zrotation Yrotation Xrotation
			JOINT Spine1
			{
				OFFSET 0.056720 2.048850 -0.042750
				CHANNELS 3 Zrotation Yrotation Xrotation
				JOINT Neck
				{
					OFFSET 0.000000 0.000000 0.000000
					CHANNELS 3 Zrotation Yrotation Xrotation
					JOINT Neck1
					{
						OFFSET -0.054170 1.746240 0.172020
						CHANNELS 3 Zrotation Yrotation Xrotation
						JOINT Head
						{
							OFFSET 0.104070 1.761360 -0.123970
							CHANNELS 3 Zrotation Yrotation Xrotation
							End Site
							{
								OFFSET 0.000000 0.000000 0.000000
							}
						}
					}
				}
				JOINT LeftShoulder
				{
					OFFSET 0.000000 0.000000 0.000000
					CHANNELS 3 Zrotation Yrotation Xrotation
					JOINT LeftArm
					{
						OFFSET 3.362410 1.200890 -0.311210
						CHANNELS 3 Zrotation Yrotation Xrotation
						JOINT LeftForeArm
						{
							OFFSET 4.983000 -0.000000 -0.000000
							CHANNELS 3 Zrotation Yrotation Xrotation
							JOINT LeftHand
							{
								OFFSET 3.483560 -0.000000 -0.000000
								CHANNELS 3 Zrotation Yrotation Xrotation
								JOINT LeftFingerBase
								{
									OFFSET 0.000000 0.000000 0.000000
									CHANNELS 3 Zrotation Yrotation Xrotation
									JOINT LeftHandIndex1
									{
										OFFSET 0.715260 -0.000000 -0.000000
										CHANNELS 3 Zrotation Yrotation Xrotation
										End Site
										{
											OFFSET 0.000000 0.000000 0.000000
										}
									}
								}
								JOINT LThumb
								{
									OFFSET 0.000000 0.000000 0.000000
									CHANNELS 3 Zrotation Yrotation Xrotation
									End Site
									{
										OFFSET 0.000000 0.000000 0.000000
									}
								}
							}
						}
					}
				}
				JOINT RightShoulder
				{
					OFFSET 0.000000 0.000000 0.000000
					CHANNELS 3 Zrotation Yrotation Xrotation
					JOINT RightArm
					{
						OFFSET -3.136600 1.374050 -0.404650
						CHANNELS 3 Zrotation Yrotation Xrotation
						JOINT RightForeArm
						{
							OFFSET -5.241900 -0.000000 -0.000000
							CHANNELS 3 Zrotation Yrotation Xrotation
							JOINT RightHand
							{
								OFFSET -3.444170 -0.000000 -0.000000
								CHANNELS 3 Zrotation Yrotation Xrotation
								JOINT RightFingerBase
								{
									OFFSET 0.000000 0.000000 0.000000
									CHANNELS 3 Zrotation Yrotation Xrotation
									JOINT RightHandIndex1
									{
										OFFSET -0.622530 -0.000000 -0.000000
										CHANNELS 3 Zrotation Yrotation Xrotation
										End Site
										{
											OFFSET 0.000000 0.000000 0.000000
										}
									}
								}
								JOINT RThumb
								{
									OFFSET 0.000000 0.000000 0.000000
									CHANNELS 3 Zrotation Yrotation Xrotation
									End Site
									{
										OFFSET 0.000000 0.000000 0.000000
									}
								}
							}
						}
					}
				}
			}
		}
	}
}
MOTION
Frames: 9
Frame Time: 0.008333
2.840688 17.055519 0.375474 24.308257 -88.415395 -16.023466 -10.113061 2.884462 1.931136 -5.441856 12.940891 -20.767019 -2.115532 0.301239 19.825894 1.766407 10.812501 -6.424010 0.233400 0.000001 -47.450900 10.898621 -0.986758 1.562631 0.983617 -8.230052 -15.996412 1.201529 -0.293196 21.347799 -1.578759 -7.103954 -6.594093 -0.488300 -0.000000 -70.384800 -2.053369 -4.214045 -5.541546 -0.600401 -4.191521 -3.147354 -4.054877 -4.276929 2.934570 11.127379 -24.708212 -8.792110 -0.908032 -0.055917 -0.181301 0.000000 0.000000 0.000000 15.165507 10.336767 -0.445557 -25.687362 4.187166 -14.541276 -179.877547 -75.324497 -179.995605 -1.909746 -5.519366 0.107821 0.133479 0.554687 -0.000000 0.000000 0.000000 0.000000 0.000000 0.000000 0.000000 7.167521 -20.957974 -1.902599 29.111490 12.554607 -5.220405 179.784771 70.760179 179.943158 -9.054340 9.615178 -0.822900 0.172217 -0.561254 -0.000000 0.000000 0.000000 0.000000 0.000000 0.000000 0.000000 
2.833126 17.045593 0.379488 19.681554 -87.527109 -11.538981 -10.204523 2.894451 2.072396 -5.432499 12.249238 -20.855919 -2.088165 0.335389 20.197868 1.753747 10.657975 -6.590742 0.195900 0.000001 -47.546800 10.804207 -0.977817 1.440097 0.945287 -8.673270 -15.694739 1.162980 -0.287929 21.567495 -1.684928 -7.643956 -6.839202 -0.479900 -0.000000 -70.298500 -2.292490 -4.234421 -5.548294 -0.649053 -4.192889 -3.145349 -4.050185 -4.278492 2.926792 11.119234 -24.822327 -8.833420 -0.906363 -0.054989 -0.192281 0.000000 0.000000 0.000000 15.116869 10.382332 -0.477494 -25.720631 3.967673 -14.350430 -179.881640 -75.122533 -179.995492 -1.943702 -5.496431 0.109300 0.135919 0.554931 -0.000000 0.000000 0.000000 0.000000 0.000000 0.000000 0.000000 7.199051 -21.070154 -1.896738 29.175883 12.490005 -5.035497 179.776987 70.826808 179.943542 -9.048626 9.729818 -0.831779 0.172710 -0.562349 -0.000000 0.000000 0.000000 0.000000 0.000000 0.000000 0.000000 
2.823734 17.036654 0.383917 16.313153 -86.534927 -8.294471 -10.261534 2.895524 2.231173 -5.414721 11.464342 -20.944039 -2.053420 0.357515 20.533942 1.742545 10.515391 -6.740015 0.164400 -0.000000 -47.609800 10.739080 -0.982645 1.324728 0.929305 -9.151380 -15.375048 1.128389 -0.284497 21.720198 -1.800119 -8.232324 -7.065289 -0.473800 0.000000 -70.178700 -2.499977 -4.266692 -5.577872 -0.689483 -4.208833 -3.147312 -4.046093 -4.294635 2.920233 11.106669 -24.946299 -8.881356 -0.904631 -0.053966 -0.204886 0.000000 0.000000 0.000000 15.063054 10.420496 -0.511462 -25.776236 3.752086 -14.143264 -179.885270 -74.887446 -179.995349 -1.986114 -5.487872 0.111578 0.138699 0.555600 -0.000000 0.000000 0.000000 0.000000 0.000000 0.000000 0.000000 7.228396 -21.195431 -1.889773 29.260133 12.415834 -4.845713 179.766700 70.911505 179.944292 -8.989370 9.836242 -0.834959 0.172083 -0.562927 -0.000000 0.000000 0.000000 0.000000 0.000000 0.000000 0.000000 
2.812368 17.028845 0.388797 13.787634 -85.452401 -5.871099 -10.289553 2.895284 2.411253 -5.394108 10.588854 -21.036738 -2.014453 0.370881 20.827342 1.732879 10.383318 -6.868435 0.139299 -0.000000 -47.637501 10.698029 -0.994527 1.214725 0.930846 -9.666739 -15.040703 1.096126 -0.278796 21.804841 -1.922485 -8.861466 -7.268801 -0.470500 -0.000000 -70.022200 -2.685904 -4.304764 -5.633872 -0.725057 -4.232429 -3.154333 -4.044069 -4.318360 2.914433 11.090692 -25.078873 -8.936220 -0.903285 -0.052882 -0.219151 0.000000 0.000000 0.000000 15.008015 10.449338 -0.547643 -25.851852 3.548954 -13.917295 -179.888456 -74.615700 -179.995187 -2.035815 -5.494214 0.114456 0.141788 0.556671 -0.000000 0.000000 0.000000 0.000000 0.000000 0.000000 0.000000 7.258157 -21.327897 -1.880123 29.363325 12.316616 -4.662802 179.753958 71.012658 179.945399 -8.880607 9.916724 -0.831244 0.170512 -0.562610 -0.000000 0.000000 0.000000 0.000000 0.000000 0.000000 0.000000 
2.799106 17.022370 0.394086 11.867812 -84.284890 -4.033284 -10.292881 2.897567 2.612539 -5.375189 9.626240 -21.127682 -1.973385 0.377235 21.067830 1.724020 10.258139 -6.969931 0.121201 -0.000000 -47.632000 10.677519 -1.009512 1.105891 0.941204 -10.229163 -14.686333 1.065670 -0.268771 21.815924 -2.049490 -9.520412 -7.444504 -0.471000 0.000000 -69.840400 -2.862076 -4.346343 -5.712018 -0.759151 -4.260436 -3.165526 -4.045951 -4.346346 2.909411 11.074960 -25.213332 -8.999469 -0.903083 -0.051767 -0.235497 0.000000 0.000000 0.000000 14.956272 10.479100 -0.585615 -25.944432 3.347655 -13.669281 -179.891131 -74.311985 -179.995006 -2.092152 -5.513066 0.118033 0.145141 0.558135 -0.000000 0.000000 0.000000 0.000000 0.000000 0.000000 0.000000 7.295278 -21.458761 -1.867811 29.484342 12.174264 -4.500290 179.739412 71.127175 179.946784 -8.736114 9.958660 -0.820929 0.168317 -0.561112 0.000000 0.000000 0.000000 0.000000 0.000000 0.000000 0.000000 
2.783833 17.017365 0.399832 10.388027 -83.034606 -2.612957 -10.275369 2.904139 2.835433 -5.361133 8.584321 -21.219379 -1.932172 0.377243 21.248354 1.714365 10.130566 -7.038891 0.110800 0.000000 -47.597000 10.673974 -1.026663 0.997905 0.956313 -10.842812 -14.313787 1.037121 -0.253059 21.749189 -2.179648 -10.202676 -7.588856 -0.476300 0.000001 -69.632600 -3.036271 -4.389299 -5.813284 -0.793913 -4.290135 -3.181407 -4.052814 -4.375862 2.904027 11.062092 -25.348060 -9.071763 -0.904384 -0.050640 -0.254070 0.000000 0.000000 0.000000 14.911511 10.506789 -0.624855 -26.050495 3.154134 -13.396403 -179.893199 -73.975111 -179.994809 -2.153882 -5.542017 0.122108 0.148697 0.559901 -0.000000 0.000000 0.000000 0.000000 0.000000 0.000000 0.000000 7.343420 -21.583803 -1.852452 29.617196 11.973164 -4.367274 179.723641 71.245318 179.948324 -8.578023 9.954946 -0.805513 0.166059 -0.558344 0.000000 0.000000 0.000000 0.000000 0.000000 0.000000 0.000000 
2.766471 17.013958 0.406099 9.239691 -81.702380 -1.500084 -10.239668 2.915912 3.078884 -5.354008 7.472475 -21.308936 -1.892516 0.371036 21.359257 1.702075 9.990990 -7.068459 0.108600 -0.000000 -47.539900 10.685166 -1.045791 0.890023 0.971638 -11.512177 -13.921682 1.010777 -0.230879 21.598502 -2.311432 -10.902076 -7.697259 -0.488100 0.000000 -69.400100 -3.215127 -4.432039 -5.936170 -0.831139 -4.319418 -3.201862 -4.065558 -4.404781 2.897390 11.054523 -25.480908 -9.154170 -0.907406 -0.049503 -0.275165 0.000000 0.000000 0.000000 14.876687 10.534451 -0.664801 -26.166558 2.965702 -13.094866 -179.894549 -73.605840 -179.994596 -2.219675 -5.577542 0.126482 0.152391 0.561897 -0.000000 0.000000 0.000000 0.000000 0.000000 0.000000 0.000000 7.406057 -21.699245 -1.834083 29.755136 11.701275 -4.269744 179.707402 71.360199 179.949868 -8.432711 9.906730 -0.787893 0.164343 -0.554384 0.000000 0.000000 0.000000 0.000000 0.000000 0.000000 0.000000 
2.747329 17.012319 0.412920 8.348221 -80.290095 -0.624929 -10.187425 2.933017 3.339829 -5.355052 6.302854 -21.388271 -1.856046 0.358706 21.388774 1.685139 9.829731 -7.051001 0.115600 0.000000 -47.468600 10.709977 -1.066393 0.780294 0.981710 -12.241472 -13.504285 0.986760 -0.201969 21.357216 -2.443280 -11.612977 -7.764470 -0.508601 0.000000 -69.154000 -3.404830 -4.473666 -6.075296 -0.872440 -4.346875 -3.225822 -4.084868 -4.431654 2.888903 11.055578 -25.608827 -9.248208 -0.912009 -0.048312 -0.299251 0.000000 0.000000 0.000000 14.853366 10.571444 -0.704367 -26.287136 2.772117 -12.761508 -179.894974 -73.210981 -179.994355 -2.289387 -5.614731 0.131255 0.156162 0.564029 -0.000000 0.000000 0.000000 0.000000 0.000000 0.000000 0.000000 7.486795 -21.801512 -1.813591 29.891793 11.356335 -4.209840 179.691621 71.464040 179.951252 -8.326221 9.824609 -0.771465 0.163704 -0.549546 0.000000 0.000000 0.000000 0.000000 0.000000 0.000000 0.000000 
2.726057 17.012515 0.420526 7.643211 -78.796962 0.090890 -10.120537 2.955580 3.619327 -5.362620 5.084069 -21.463318 -1.823960 0.339696 21.330535 1.661793 9.636916 -6.980897 0.132000 0.000000 -47.394300 10.746300 -1.090502 0.671476 0.989499 -13.029662 -13.066643 0.965852 -0.165467 21.019034 -2.574776 -12.334700 -7.786793 -0.540000 0.000000 -68.883600 -3.605176 -4.512025 -6.235903 -0.917805 -4.370355 -3.254998 -4.110434 -4.454384 2.876406 11.064937 -25.737055 -9.353299 -0.917925 -0.047066 -0.326110 0.000000 0.000000 0.000000 14.840717 10.599674 -0.742672 -26.406179 2.596212 -12.395098 -179.894378 -72.783111 -179.994098 -2.360897 -5.652131 0.136229 0.159935 0.566152 -0.000000 0.000000 0.000000 0.000000 0.000000 0.000000 0.000000 7.584084 -21.893669 -1.789348 30.014655 10.939292 -4.182088 179.676317 71.550850 179.952363 -8.280673 9.720461 -0.759227 0.164704 -0.544171 -0.000000 0.000000 0.000000 0.000000 0.000000 0.000000 0.000000 
